Coordinates
version=1
nRows=17
nColumns=24
inDegrees=yes

Units are S.I. units (second, meters, Newtons, ...)
Angles are in degrees.

endheader
time	pelvis_tilt	pelvis_list	pelvis_rotation	pelvis_tx	pelvis_ty	pelvis_tz	hip_flexion_r	hip_adduction_r	hip_rotation_r	knee_angle_r	ankle_angle_r	subtalar_angle_r	mtp_angle_r	hip_flexion_l	hip_adduction_l	hip_rotation_l	knee_angle_l	ankle_angle_l	subtalar_angle_l	mtp_angle_l	lumbar_extension	lumbar_bending	lumbar_rotation
      3.14000000	      2.86401433	     -4.47922890	      2.52021602	      0.33693751	      1.01890648	      0.06050022	      3.24710930	      6.19202428	     -1.53761340	     -7.80652418	      4.29859728	     -4.98696731	     10.25740824	     19.11530416	     -8.96770385	     -6.38533524	    -67.55428085	     -1.94716606	    -12.72268628	     30.16625192	    -14.67773504	      8.73486443	      1.66211275
      3.14500000	      2.91960435	     -4.41046386	      2.40333785	      0.34149181	      1.01928109	      0.06101779	      2.81399694	      6.15710280	     -1.52085768	     -7.66301370	      4.51890640	     -4.78403913	     10.15483813	     19.55603854	     -8.86789951	     -6.47473377	    -67.28900898	     -1.39245260	    -12.12180093	     30.22339501	    -14.79449450	      8.60549717	      1.76923244
      3.15000000	      3.06899036	     -4.34887656	      2.28553484	      0.34610489	      1.01977681	      0.06149982	      2.26991837	      6.12449990	     -1.53376096	     -7.51930984	      4.95113015	     -4.30832432	      8.37443791	     19.86466357	     -8.77826929	     -6.57358164	    -66.96379682	     -0.71164889	    -11.40481125	     29.05161279	    -15.01123602	      8.48776875	      1.89654048
      3.15500000	      3.11022816	     -4.28168248	      2.17983932	      0.35068085	      1.02007747	      0.06199337	      1.85755986	      6.09012316	     -1.51540810	     -7.38771696	      5.15946496	     -4.19170450	      8.35678606	     20.28782157	     -8.66833817	     -6.64135199	    -66.58308456	     -0.19397069	    -10.83409422	     29.18963287	    -15.10371117	      8.35723528	      1.98234353
      3.16000000	      3.28492856	     -4.22343488	      2.07059479	      0.35535000	      1.02058352	      0.06245307	      1.27377191	      6.06123082	     -1.51591001	     -7.21440065	      5.37006500	     -3.92410479	      8.22694735	     20.51870046	     -8.57631978	     -6.72709552	    -66.11089583	      0.32371297	    -10.28898490	     29.22842332	    -15.33751749	      8.24207566	      2.11221647
      3.16500000	      3.34039021	     -4.12016914	      1.93696020	      0.35999528	      1.02090587	      0.06293463	      0.84259727	      5.97984216	     -1.48132163	     -7.08854843	      5.60480677	     -3.74616240	      8.18678783	     20.85544740	     -8.43125361	     -6.83371777	    -65.57780971	      0.76827013	     -9.77534140	     29.28721430	    -15.43775833	      8.06658386	      2.21721751
      3.17000000	      3.55421957	     -4.05420249	      1.82750106	      0.36473854	      1.02143378	      0.06335403	      0.20880053	      5.93682269	     -1.50074987	     -6.90964395	      5.82709761	     -3.44306927	      7.96301264	     20.98701325	     -8.32382129	     -6.91819608	    -64.97520069	      1.27134041	     -9.27531668	     29.16030846	    -15.70349616	      7.94239472	      2.34349392
      3.17500000	      3.71103356	     -3.95117830	      1.70003206	      0.36946701	      1.02187262	      0.06377151	     -0.35056359	      5.84954819	     -1.49559315	     -6.75691929	      6.07782766	     -3.18480477	      7.65704411	     21.15177478	     -8.17186847	     -7.01518709	    -64.30670283	      1.73173611	     -8.77711683	     28.94098474	    -15.90658778	      7.77306818	      2.45745326
      3.18000000	      3.82636783	     -3.86096588	      1.54636365	      0.37417438	      1.02221515	      0.06423271	     -0.85777579	      5.77245458	     -1.42162072	     -6.61517714	      6.34107846	     -2.94293090	      7.51265557	     21.34627698	     -8.04691823	     -7.12533612	    -63.59557580	      2.11008185	     -8.26073086	     28.86351791	    -16.06388122	      7.60844642	      2.59309785
      3.18500000	      3.92761873	     -3.73485190	      1.40511182	      0.37891319	      1.02253358	      0.06464792	     -1.34107660	      5.65559358	     -1.40882510	     -6.49177966	      6.57852397	     -2.77306625	      7.41120537	     21.52207199	     -7.86834877	     -7.22542010	    -62.80725614	      2.46524572	     -7.79977493	     28.81554529	    -16.19823347	      7.40777584	      2.70099993
      3.19000000	      4.20270643	     -3.59476178	      1.32609673	      0.38376824	      1.02309207	      0.06494304	     -2.06667227	      5.51963348	     -1.45369126	     -6.28102029	      6.87219731	     -2.43773412	      6.71562150	     21.47041529	     -7.64946397	     -7.27551494	    -61.93430404	      2.85094675	     -7.40986553	     28.15808637	    -16.50925146	      7.20919001	      2.74550699
      3.19500000	      4.29314825	     -3.53452023	      1.12336796	      0.38852193	      1.02332320	      0.06544907	     -2.52895564	      5.46505701	     -1.35605908	     -6.17242725	      7.10895161	     -2.20571349	      6.49897206	     21.61077794	     -7.57511016	     -7.41038800	    -61.06504910	      3.24914771	     -6.88983673	     28.04413748	    -16.63134973	      7.06284773	      2.94996198
      3.20000000	      4.43641540	     -3.40744966	      0.96477840	      0.39326662	      1.02362680	      0.06583079	     -3.05735858	      5.33327820	     -1.28879684	     -6.04834258	      7.36714828	     -1.97867826	      6.31390012	     21.66511001	     -7.38906073	     -7.48416243	    -60.10724102	      3.52935912	     -6.44786999	     27.92225409	    -16.80779635	      6.85813175	      3.09485829
      3.20500000	      4.64442311	     -3.24924231	      0.87474309	      0.39814422	      1.02402174	      0.06607922	     -3.69574519	      5.16816867	     -1.33974081	     -5.86290878	      7.65648682	     -1.72753883	      5.60515887	     21.61326547	     -7.13998389	     -7.51125968	    -59.06835252	      3.81438720	     -6.08423661	     27.35472526	    -17.03328234	      6.63966190	      3.12407635
      3.21000000	      4.71967035	     -3.17299849	      0.65288887	      0.40289615	      1.02416088	      0.06654631	     -4.12923927	      5.08188252	     -1.20099484	     -5.77431098	      7.90596052	     -1.50920651	      5.43566781	     21.69555532	     -7.03988671	     -7.62103660	    -58.03377452	      4.11300074	     -5.60245198	     27.28460166	    -17.13505344	      6.47423345	      3.33858099
      3.21500000	      4.85561883	     -3.04454355	      0.48992561	      0.40770972	      1.02436903	      0.06688622	     -4.65480759	      4.93805149	     -1.14041410	     -5.64069251	      8.15230972	     -1.30565291	      5.22788755	     21.67980279	     -6.85025575	     -7.67641939	    -56.91606273	      4.34580779	     -5.20975178	     27.15702799	    -17.29062483	      6.26872070	      3.46069729
      3.22000000	      5.01565360	     -2.91050882	      0.32565658	      0.41259086	      1.02460024	      0.06724079	     -5.21688448	      4.78733583	     -1.10260946	     -5.49354842	      8.40093137	     -1.08767661	      4.95584481	     21.60344304	     -6.66248945	     -7.74408091	    -55.73958095	      4.56392566	     -4.84406185	     26.97643846	    -17.46333184	      6.05363042	      3.58397029
